<?xml version="1.0" encoding="UTF-8"?>
<svg xmlns="http://www.w3.org/2000/svg" xmlns:xlink="http://www.w3.org/1999/xlink" viewBox="0 0 100 100" width="100px" height="100px">
<g id="surface2340405">
<path style=" stroke:none;fill-rule:nonzero;fill:rgb(1.960784%,6.666667%,12.54902%);fill-opacity:1;" d="M 50 87.5 C 29.289062 87.5 12.5 70.710938 12.5 50 C 12.5 29.289062 29.289062 12.5 50 12.5 C 70.710938 12.5 87.5 29.289062 87.5 50 C 87.5 70.710938 70.710938 87.5 50 87.5 Z M 50 87.5 "/>
<path style=" stroke:none;fill-rule:nonzero;fill:rgb(100%,100%,100%);fill-opacity:1;" d="M 38.097656 85.851562 C 39.269531 85.347656 40.09375 84.179688 40.09375 82.820312 L 40.09375 73.902344 C 40.09375 73.578125 40.121094 73.242188 40.160156 72.898438 C 40.136719 72.902344 40.117188 72.910156 40.09375 72.914062 C 40.09375 72.914062 35.140625 72.914062 34.148438 72.914062 C 31.671875 72.914062 29.527344 71.921875 28.535156 69.941406 C 27.378906 67.792969 26.882812 64.164062 23.910156 62.179688 C 23.417969 61.851562 23.746094 61.355469 24.738281 61.355469 C 25.726562 61.519531 27.875 62.839844 29.195312 64.65625 C 30.679688 66.472656 32.167969 67.960938 34.808594 67.960938 C 38.914062 67.960938 41.117188 67.753906 42.441406 67.042969 C 43.984375 64.75 46.117188 63.007812 48.347656 63.007812 L 48.347656 62.964844 C 38.988281 62.664062 33.011719 59.554688 30.226562 54.75 C 24.175781 54.820312 18.90625 55.417969 15.898438 55.917969 C 15.804688 55.378906 15.722656 54.835938 15.652344 54.289062 C 18.617188 53.800781 23.648438 53.21875 29.429688 53.109375 C 29.246094 52.652344 29.085938 52.1875 28.949219 51.707031 C 23.152344 51.414062 18.148438 51.644531 15.429688 51.867188 C 15.398438 51.320312 15.351562 50.773438 15.347656 50.21875 C 18.070312 49.996094 22.9375 49.773438 28.585938 50.035156 C 28.457031 49.210938 28.371094 48.367188 28.371094 47.488281 C 28.371094 44.679688 29.363281 41.707031 31.179688 39.230469 C 30.351562 36.425781 29.195312 30.480469 31.507812 28.332031 C 35.964844 28.332031 39.105469 30.480469 40.589844 31.800781 C 43.394531 30.644531 46.53125 29.984375 50 29.984375 C 53.46875 29.984375 56.605469 30.644531 59.246094 31.800781 C 60.734375 30.476562 63.871094 28.332031 68.328125 28.332031 C 70.804688 30.644531 69.484375 36.585938 68.660156 39.230469 C 70.472656 41.707031 71.464844 44.511719 71.300781 47.484375 C 71.300781 48.285156 71.226562 49.054688 71.117188 49.8125 C 76.894531 49.527344 81.894531 49.753906 84.664062 49.980469 C 84.660156 50.535156 84.609375 51.078125 84.582031 51.628906 C 81.820312 51.402344 76.695312 51.167969 70.777344 51.484375 C 70.632812 52.039062 70.453125 52.578125 70.242188 53.101562 C 76.097656 53.175781 81.246094 53.742188 84.355469 54.238281 C 84.285156 54.785156 84.203125 55.328125 84.105469 55.867188 C 80.949219 55.363281 75.570312 54.773438 69.445312 54.742188 C 66.695312 59.496094 60.828125 62.59375 51.652344 62.957031 L 51.652344 63.007812 C 55.945312 63.007812 59.90625 69.445312 59.90625 73.902344 L 59.90625 82.820312 C 59.90625 84.179688 60.730469 85.347656 61.902344 85.851562 C 77.03125 80.84375 87.976562 66.578125 87.976562 49.796875 C 87.976562 28.855469 70.941406 11.820312 50 11.820312 C 29.058594 11.820312 12.023438 28.855469 12.023438 49.796875 C 12.023438 66.578125 22.96875 80.84375 38.097656 85.851562 Z M 38.097656 85.851562 "/>
</g>
</svg>
