<?xml version="1.0" encoding="UTF-8"?>
<svg xmlns="http://www.w3.org/2000/svg" xmlns:xlink="http://www.w3.org/1999/xlink" viewBox="0 0 100 100" width="100px" height="100px">
<g id="surface232942919">
<path style=" stroke:none;fill-rule:nonzero;fill:rgb(1.960784%,6.666667%,12.54902%);fill-opacity:1;" d="M 50 87.5 C 29.289062 87.5 12.5 70.710938 12.5 50 C 12.5 29.289062 29.289062 12.5 50 12.5 C 70.710938 12.5 87.5 29.289062 87.5 50 C 87.5 70.710938 70.710938 87.5 50 87.5 Z M 50 87.5 "/>
<path style=" stroke:none;fill-rule:nonzero;fill:rgb(100%,100%,100%);fill-opacity:1;" d="M 50 11.820312 C 28.949219 11.820312 11.820312 28.949219 11.820312 50 C 11.820312 71.050781 28.949219 88.179688 50 88.179688 C 71.054688 88.179688 88.179688 71.050781 88.179688 50 C 88.179688 28.949219 71.054688 11.820312 50 11.820312 Z M 66.554688 57.527344 C 70.269531 60.824219 71.039062 62 71.167969 62.203125 C 72.707031 64.644531 69.460938 64.941406 69.460938 64.941406 L 62.621094 64.941406 C 62.621094 64.941406 60.957031 64.957031 59.535156 64.015625 C 57.214844 62.496094 54.785156 59.550781 53.078125 60.0625 C 51.648438 60.492188 51.660156 62.425781 51.660156 64.082031 C 51.660156 64.675781 51.148438 64.941406 50 64.941406 C 48.851562 64.941406 48.371094 64.941406 47.863281 64.941406 C 44.117188 64.941406 40.050781 63.679688 35.996094 59.441406 C 30.257812 53.449219 25.226562 41.382812 25.226562 41.382812 C 25.226562 41.382812 24.929688 40.773438 25.253906 40.402344 C 25.621094 39.988281 26.617188 40.042969 26.617188 40.042969 L 33.25 40.039062 C 33.25 40.039062 33.875 40.15625 34.320312 40.472656 C 34.691406 40.730469 34.898438 41.226562 34.898438 41.226562 C 34.898438 41.226562 36.011719 44.90625 37.429688 47.25 C 40.203125 51.828125 41.492188 51.945312 42.433594 51.453125 C 43.808594 50.738281 43.359375 45.871094 43.359375 45.871094 C 43.359375 45.871094 43.421875 43.78125 42.703125 42.851562 C 42.152344 42.128906 41.09375 41.746094 40.632812 41.6875 C 40.257812 41.636719 40.882812 40.984375 41.679688 40.609375 C 42.742188 40.136719 44.1875 40.015625 46.679688 40.039062 C 48.621094 40.058594 49.179688 40.175781 49.9375 40.347656 C 52.226562 40.875 51.660156 42.269531 51.660156 47.160156 C 51.660156 48.726562 51.445312 50.929688 52.625 51.660156 C 53.136719 51.976562 54.882812 52.359375 57.988281 47.3125 C 59.464844 44.921875 60.640625 40.949219 60.640625 40.949219 C 60.640625 40.949219 60.882812 40.511719 61.257812 40.296875 C 61.644531 40.078125 61.632812 40.082031 62.160156 40.082031 C 62.6875 40.082031 67.980469 40.039062 69.144531 40.039062 C 70.304688 40.039062 71.390625 40.027344 71.578125 40.707031 C 71.847656 41.683594 70.722656 45.035156 67.871094 48.671875 C 63.183594 54.636719 62.664062 54.078125 66.554688 57.527344 Z M 66.554688 57.527344 "/>
</g>
</svg>
